<svg xmlns="http://www.w3.org/2000/svg" viewBox="0 0 1024 1024">
  <defs>
    <linearGradient id="bg" x1="176" y1="116" x2="848" y2="908" gradientUnits="userSpaceOnUse">
      <stop offset="0" stop-color="#0ea5e9"/>
      <stop offset="1" stop-color="#1d4ed8"/>
    </linearGradient>
    <linearGradient id="bookmark" x1="342" y1="224" x2="590" y2="760" gradientUnits="userSpaceOnUse">
      <stop offset="0" stop-color="#fef3c7"/>
      <stop offset="1" stop-color="#f59e0b"/>
    </linearGradient>
    <filter id="shadow" x="-20%" y="-20%" width="140%" height="150%">
      <feDropShadow dx="0" dy="24" stdDeviation="28" flood-color="#0f172a" flood-opacity="0.28"/>
    </filter>
  </defs>
  <rect width="1024" height="1024" rx="220" fill="url(#bg)"/>
  <path d="M300 212c0-42 34-76 76-76h264c42 0 76 34 76 76v534c0 37-42 58-71 35L508 672 371 781c-29 23-71 2-71-35V212z" fill="url(#bookmark)" filter="url(#shadow)"/>
  <path d="M388 222h240c22 0 40 18 40 40v398L534 553c-15-12-37-12-52 0L348 660V262c0-22 18-40 40-40z" fill="#fff7ed" opacity="0.36"/>
  <circle cx="574" cy="536" r="162" fill="none" stroke="#f8fafc" stroke-width="78" filter="url(#shadow)"/>
  <path d="M688 650l156 156" fill="none" stroke="#f8fafc" stroke-width="86" stroke-linecap="round"/>
  <circle cx="574" cy="536" r="92" fill="#0f172a" opacity="0.16"/>
</svg>
